<region>
sample=Anastrings\Anastrings_024.flac
volume=1
lokey=0 hikey=26
pitch_keycenter=24
offset=0

<region>
sample=Anastrings\Anastrings_028.flac
volume=1
lokey=27 hikey=30
pitch_keycenter=28
offset=0

<region>
sample=Anastrings\Anastrings_032.flac
volume=1
lokey=31 hikey=34
pitch_keycenter=32
offset=0

<region>
sample=Anastrings\Anastrings_036.flac
volume=1
lokey=35 hikey=38
pitch_keycenter=36
offset=0

<region>
sample=Anastrings\Anastrings_040.flac
volume=1
lokey=39 hikey=42
pitch_keycenter=40
offset=0

<region>
sample=Anastrings\Anastrings_044.flac
volume=1
lokey=43 hikey=46
pitch_keycenter=44
offset=0

<region>
sample=Anastrings\Anastrings_048.flac
volume=1
lokey=47 hikey=50
pitch_keycenter=48
offset=0

<region>
sample=Anastrings\Anastrings_052.flac
volume=1
lokey=51 hikey=54
pitch_keycenter=52
offset=0

<region>
sample=Anastrings\Anastrings_056.flac
volume=1
lokey=55 hikey=58
pitch_keycenter=56
offset=0

<region>
sample=Anastrings\Anastrings_060.flac
volume=1
lokey=59 hikey=62
pitch_keycenter=60
offset=0

<region>
sample=Anastrings\Anastrings_064.flac
volume=1
lokey=63 hikey=66
pitch_keycenter=64
offset=0

<region>
sample=Anastrings\Anastrings_068.flac
volume=1
lokey=67 hikey=70
pitch_keycenter=68
offset=0

<region>
sample=Anastrings\Anastrings_072.flac
volume=1
lokey=71 hikey=74
pitch_keycenter=72
offset=0

<region>
sample=Anastrings\Anastrings_076.flac
volume=1
lokey=75 hikey=78
pitch_keycenter=76
offset=0

<region>
sample=Anastrings\Anastrings_080.flac
volume=1
lokey=79 hikey=82
pitch_keycenter=80
offset=0

<region>
sample=Anastrings\Anastrings_084.flac
volume=1
lokey=83 hikey=86
pitch_keycenter=84
offset=0

<region>
sample=Anastrings\Anastrings_088.flac
volume=1
lokey=87 hikey=90
pitch_keycenter=88
offset=0

<region>
sample=Anastrings\Anastrings_092.flac
volume=1
lokey=91 hikey=94
pitch_keycenter=92
offset=0

<region>
sample=Anastrings\Anastrings_096.flac
volume=1
lokey=95 hikey=98
pitch_keycenter=96
offset=0

<region>
sample=Anastrings\Anastrings_100.flac
volume=1
lokey=99 hikey=102
pitch_keycenter=100
offset=0

<region>
sample=Anastrings\Anastrings_104.flac
volume=1
lokey=103 hikey=106
pitch_keycenter=104
offset=0

<region>
sample=Anastrings\Anastrings_108.flac
volume=1
lokey=107 hikey=127
pitch_keycenter=108
offset=0